<svg xmlns="http://www.w3.org/2000/svg" width="975" height="975" viewBox="0 0 975 975">
  <defs>
    <style>
      .cls-1 {
        fill: fill_1;
      }

      .cls-1, .cls-2 {
        stroke: #000;
        stroke-linecap: round;
        stroke-linejoin: round;
        stroke-width: 1px;
      }

      .cls-2 {
        fill: fill_2;
        fill-rule: evenodd;
      }
    </style>
  </defs>
  <circle class="cls-1" cx="487.5" cy="487.5" r="488"/>
  <path id="fff" class="cls-2" d="M302,383c8.147-35.3,18.353-40.935,36-42,27.921,0.183,31.544,22.433,32,42,1.818,109.782.865,280.446,1,498,54.915,21.189,156.019,31.411,250,3-0.684-88.56.14-435.806,0-498,4.17-32.341,16.743-43.808,36-45,28.676,0.884,30.053,15.86,32,43,3.522,45.163.187,368.5,1,472,325.75-175.494,284.6-626.255-44-757-77.411,15.587-108.963,56.643-151,112C445.713,126.713,374.245,101.214,351,99,11.859,239.651-1,680.091,301,851,301,851,300.845,490.3,302,383Z" transform="translate(-12.5 -12.5)"/>
</svg>
